<mxfile host="app.diagrams.net" modified="2023-07-17T09:55:36.381Z" agent="Mozilla/5.0 (Macintosh; Intel Mac OS X 10_15_7) AppleWebKit/537.36 (KHTML, like Gecko) Chrome/114.0.0.0 Safari/537.36" version="21.6.2" etag="8wdsGXodfOmhuDjm9fe8" type="github">
  <diagram name="Page-1" id="n59CUuz79ZGjcLygdnoj">
    <mxGraphModel>
      <root>
        <mxCell id="0" />
        <mxCell id="1" parent="0" />
      </root>
    </mxGraphModel>
  </diagram>
</mxfile>
